<?xml version="1.0" encoding="UTF-8"?>
<svg version="1.1" xmlns="http://www.w3.org/2000/svg" width="163" height="163">
<path d="M0 0 C13.237563 10.69324645 23.20935416 24.53215493 28 41 C28.125 44.375 28.125 44.375 28 47 C25.6875 48.125 25.6875 48.125 23 49 C19.30269225 46.53512817 18.62839341 43.99467198 17.1875 40 C12.83045465 28.56685093 7.46462363 17.395117 -4 12 C-5.39289281 10.91849241 -6.76606336 9.81137733 -8.125 8.6875 C-17.05148191 1.54430869 -17.05148191 1.54430869 -27.72265625 -0.7265625 C-30.03627854 -0.05760102 -30.03627854 -0.05760102 -32.1875 1.125 C-35.78626311 2.24461519 -38.54464138 1.76024609 -42.24609375 1.296875 C-46.83608756 0.80206716 -51.39095771 0.85177659 -56 1 C-56.70769531 1.01675781 -57.41539063 1.03351562 -58.14453125 1.05078125 C-60.21731222 1.14450566 -60.21731222 1.14450566 -63 2 C-64.69972025 4.30480288 -64.69972025 4.30480288 -66 7 C-68.34554306 9.27224484 -70.64430903 10.83126106 -73.59375 12.23046875 C-80.15747579 15.37999846 -83.05064216 17.74974727 -85.828125 24.4921875 C-87.07578196 27.16217339 -88.48086433 28.86869013 -90.5 31 C-93.09334096 33.83950798 -95.25289971 36.66903468 -97.1875 40 C-97.63480469 40.763125 -98.08210938 41.52625 -98.54296875 42.3125 C-99.16855708 45.99117327 -97.73707637 47.65560827 -95.96801758 50.82763672 C-94.33118333 54.50091569 -94.66493087 58.1097045 -94.75 62.0625 C-94.75347265 68.0778553 -94.75347265 68.0778553 -92.34375 73.40625 C-90.27957574 75.09466743 -90.27957574 75.09466743 -88.03125 76.48828125 C-85.5596931 78.32768994 -84.93128537 79.93549811 -83.75 82.75 C-82.21800633 85.82961993 -81.51160655 86.79403805 -78.2734375 88.09765625 C-76.1627203 88.57688857 -74.04042293 89.00753938 -71.91015625 89.390625 C-69.22110257 89.95370201 -67.77558804 90.53164211 -65.5625 92.0625 C-59.37387417 95.97190022 -50.91747423 96.59824523 -43.8125 95.5 C-34.61124504 93.13610035 -27.83401222 88.10285715 -23 80 C-21.9688792 78.08884807 -20.94837309 76.17193845 -19.9375 74.25 C-17.17743721 69.03333682 -14.73073032 65.91024344 -9 64 C-7.66471193 63.91455709 -6.32556112 63.88225375 -4.98754883 63.88647461 C-4.18694534 63.88655014 -3.38634186 63.88662567 -2.56147766 63.88670349 C-1.27227669 63.89444542 -1.27227669 63.89444542 0.04296875 63.90234375 C0.9265657 63.9037587 1.81016266 63.90517365 2.72053528 63.90663147 C5.54289128 63.91222931 8.36516797 63.92478139 11.1875 63.9375 C13.10091031 63.94251528 15.01432187 63.94707814 16.92773438 63.95117188 C21.61852014 63.96219803 26.30924663 63.97946117 31 64 C31.63227145 86.59199574 22.67880608 106.69561614 7.3125 123.125 C-9.35506336 138.95109414 -30.17194166 146.56791933 -53.01391602 146.35180664 C-75.85276305 145.68367962 -96.38129532 135.51054872 -112 119 C-126.91801834 101.50322642 -133.52144849 79.87625956 -132 57 C-130.94609884 47.09049983 -128.3860391 37.97315736 -124 29 C-123.58105469 28.10023437 -123.16210938 27.20046875 -122.73046875 26.2734375 C-113.70040081 8.21330162 -97.18788444 -6.19241669 -78.03466797 -12.6640625 C-50.80995843 -21.03478322 -22.76710761 -17.5444332 0 0 Z " fill="#0087FF" transform="translate(132,17)"/>
</svg>
