<svg width="265" height="175" fill="none" xmlns="http://www.w3.org/2000/svg"><path d="M36.558 26.03A62.588 62.588 0 0071.1 17.514a40.217 40.217 0 0140.651 0 62.586 62.586 0 0034.543 8.514 40.215 40.215 0 0135.994 18.891 62.59 62.59 0 0026.63 23.592 40.216 40.216 0 0123.092 33.455 62.59 62.59 0 0012.616 33.265 40.217 40.217 0 014.9 40.355 62.585 62.585 0 00-4.288 35.317 40.218 40.218 0 01-14.415 38.01 62.584 62.584 0 00-20.21 29.279 40.216 40.216 0 01-30.428 26.956 62.596 62.596 0 00-31.502 16.534 40.214 40.214 0 01-39.469 9.728 62.597 62.597 0 00-35.577 0 40.215 40.215 0 01-39.47-9.728 62.593 62.593 0 00-31.502-16.534 40.215 40.215 0 01-30.427-26.956 62.588 62.588 0 00-20.21-29.279 40.217 40.217 0 01-14.415-38.01 62.587 62.587 0 00-4.289-35.317 40.218 40.218 0 014.9-40.355 62.584 62.584 0 0012.616-33.265 40.216 40.216 0 0123.092-33.455A62.588 62.588 0 00.563 44.92a40.217 40.217 0 0135.995-18.89z" fill="#B3DBFF" stroke="#D7ECFF" stroke-width="22.372"/></svg>