<svg width="85" height="85" viewBox="0 0 85 85" fill="none" xmlns="http://www.w3.org/2000/svg">
<rect x="0.824219" y="0.875977" width="83.328" height="83.328" rx="20.832" fill="url(#paint0_linear_562_373)"/>
<path d="M12.8236 54.4215C13.2332 53.4495 14.6106 53.4495 15.0202 54.4215L18.5353 62.762C18.7782 63.3384 18.355 63.9761 17.7294 63.9761C17.3649 63.9761 17.0386 63.7501 16.9106 63.4088L15.0378 58.4172C14.651 57.3863 13.1928 57.3863 12.806 58.4172L10.9332 63.4088C10.8052 63.7501 10.4789 63.9761 10.1144 63.9761C9.48888 63.9761 9.06563 63.3384 9.30857 62.762L12.8236 54.4215Z" fill="black"/>
<path d="M30.9785 58.5019C30.9785 61.5249 28.5278 63.9755 25.5049 63.9755C22.4819 63.9755 20.0312 61.5249 20.0312 58.5019C20.0312 55.4789 22.4819 53.0283 25.5049 53.0283C28.5278 53.0283 30.9785 55.4789 30.9785 58.5019ZM22.024 58.5019C22.024 60.4243 23.5824 61.9828 25.5049 61.9828C27.4273 61.9828 29.0679 60.4114 29.0679 58.489C29.0679 56.5666 27.4273 55.0211 25.5049 55.0211C23.5824 55.0211 22.024 56.5795 22.024 58.5019Z" fill="black"/>
<rect x="28.5469" y="60.6992" width="2.96587" height="1.9106" rx="0.955298" transform="rotate(35 28.5469 60.6992)" fill="black"/>
<path d="M31.9609 54.002C31.9609 53.4712 32.3912 53.041 32.9219 53.041C33.4526 53.041 33.8828 53.4712 33.8828 54.002V58.7841C33.8828 60.5532 35.3169 61.9873 37.086 61.9873C38.855 61.9873 40.2891 60.5532 40.2891 58.7841V54.002C40.2891 53.4712 40.7194 53.041 41.2501 53.041C41.7808 53.041 42.211 53.4712 42.211 54.002V58.8503C42.211 61.6807 39.9165 63.9753 37.086 63.9753C34.2555 63.9753 31.9609 61.6807 31.9609 58.8503V54.002Z" fill="black"/>
<path d="M47.2181 54.4215C47.6278 53.4495 49.0051 53.4495 49.4148 54.4215L52.9298 62.762C53.1727 63.3384 52.7495 63.9761 52.1239 63.9761C51.7594 63.9761 51.4332 63.7501 51.3051 63.4088L49.4324 58.4172C49.0456 57.3863 47.5873 57.3863 47.2005 58.4172L45.3278 63.4088C45.1997 63.7501 44.8735 63.9761 44.509 63.9761C43.8834 63.9761 43.4602 63.3384 43.7031 62.762L47.2181 54.4215Z" fill="black"/>
<path d="M66.0859 55.2115C66.0859 54.5942 66.5863 54.0937 67.2037 54.0937H70.643C73.1003 54.0937 75.0923 56.0857 75.0923 58.5429C75.0923 61.0425 73.0637 63.1001 70.5891 63.1001H67.1463C66.5607 63.1001 66.0859 62.6253 66.0859 62.0396V61.8399V59.6297V55.2115Z" stroke="#00AEFF" stroke-width="1.953"/>
<rect x="60.3867" y="53.1201" width="1.953" height="10.9043" rx="0.9765" fill="#00AEFF"/>
<path d="M54.2108 32.7734C54.2108 39.2443 48.965 44.4901 42.4941 44.4901C36.0231 44.4901 30.7773 39.2443 30.7773 32.7734C30.7773 26.3024 36.0231 21.0566 42.4941 21.0566C48.965 21.0566 54.2108 26.3024 54.2108 32.7734ZM31.8981 32.7734C31.8981 38.6254 36.6421 43.3693 42.4941 43.3693C48.3461 43.3693 53.09 38.6254 53.09 32.7734C53.09 26.9214 48.3461 22.1774 42.4941 22.1774C36.6421 22.1774 31.8981 26.9214 31.8981 32.7734Z" fill="white" fill-opacity="0.12"/>
<path d="M53.5078 32.7734C53.896 32.7734 54.213 33.0884 54.1897 33.476C54.0411 35.951 53.1101 38.3221 51.5219 40.2419C49.784 42.3427 47.3678 43.7716 44.6896 44.2825C42.0113 44.7934 39.2388 44.3543 36.8495 43.0408C34.4602 41.7273 32.6038 39.6216 31.6001 37.0866C30.5964 34.5515 30.5083 31.7458 31.3508 29.1527C32.1933 26.5596 33.9138 24.3416 36.2159 22.8806C38.518 21.4197 41.2575 20.8073 43.9626 21.149C46.4345 21.4613 48.7362 22.5525 50.5388 24.2549C50.8211 24.5215 50.8057 24.9682 50.5227 25.2339C50.2397 25.4997 49.7963 25.4838 49.5119 25.2195C47.9349 23.7543 45.9336 22.8152 43.7863 22.5439C41.4059 22.2432 38.9951 22.7821 36.9693 24.0677C34.9435 25.3534 33.4294 27.3053 32.688 29.5872C31.9466 31.8691 32.0241 34.3381 32.9074 36.569C33.7907 38.7998 35.4243 40.6528 37.5268 41.8087C39.6294 42.9646 42.0693 43.351 44.4261 42.9014C46.7829 42.4518 48.9092 41.1944 50.4386 39.3456C51.8182 37.678 52.6342 35.6234 52.7808 33.4758C52.8073 33.0885 53.1195 32.7734 53.5078 32.7734Z" fill="black" fill-opacity="0.24"/>
<path d="M53.0391 32.7734C53.6862 32.7734 54.2168 33.2992 54.1522 33.9431C53.9458 36.0012 53.1971 37.9756 51.9731 39.6603C50.5187 41.662 48.4679 43.152 46.1147 43.9166C43.7615 44.6812 41.2266 44.6812 38.8734 43.9166C36.5202 43.152 34.4694 41.662 33.015 39.6603C31.5607 37.6585 30.7773 35.2477 30.7773 32.7734C30.7773 30.299 31.5607 27.8882 33.015 25.8864C34.4694 23.8847 36.5202 22.3947 38.8734 21.6301C40.8538 20.9866 42.9629 20.8847 44.9841 21.3243C45.6165 21.4618 45.9526 22.129 45.7527 22.7444C45.5527 23.3598 44.8921 23.6888 44.2565 23.5672C42.71 23.2711 41.107 23.3683 39.5975 23.8587C37.7149 24.4704 36.0743 25.6624 34.9108 27.2638C33.7473 28.8652 33.1207 30.7939 33.1207 32.7734C33.1207 34.7528 33.7473 36.6815 34.9108 38.2829C36.0743 39.8843 37.7149 41.0763 39.5975 41.688C41.4801 42.2997 43.508 42.2997 45.3906 41.688C47.2732 41.0763 48.9138 39.8843 50.0773 38.2829C51.0102 36.9988 51.598 35.5044 51.7943 33.942C51.875 33.3 52.392 32.7734 53.0391 32.7734Z" fill="black" fill-opacity="0.36"/>
<path d="M52.5704 32.7734C53.4764 32.7734 54.2226 33.5113 54.0961 34.4084C53.8642 36.0539 53.2839 37.6378 52.3868 39.0515C51.1955 40.9287 49.4946 42.4283 47.4828 43.375C45.471 44.3216 43.2314 44.6763 41.0256 44.3977C38.8197 44.119 36.7387 43.2185 35.0255 41.8012C33.3124 40.384 32.0379 38.5086 31.3508 36.394C30.6637 34.2795 30.5925 32.0131 31.1454 29.8595C31.6984 27.706 32.8526 25.7542 34.4734 24.2322C35.6939 23.0861 37.141 22.2193 38.714 21.6832C39.5715 21.3909 40.4362 21.9856 40.6059 22.8755C40.7757 23.7653 40.1822 24.6098 39.3419 24.9483C38.3757 25.3376 37.4854 25.9042 36.7192 26.6238C35.5522 27.7196 34.7212 29.1249 34.3231 30.6754C33.9249 32.2259 33.9762 33.8577 34.4709 35.3802C34.9656 36.9027 35.8833 38.253 37.1167 39.2734C38.3502 40.2938 39.8485 40.9422 41.4367 41.1429C43.025 41.3435 44.6375 41.0881 46.0859 40.4065C47.5344 39.7249 48.7591 38.6452 49.6168 37.2936C50.1801 36.4061 50.5698 35.4254 50.7711 34.4034C50.9462 33.5145 51.6645 32.7734 52.5704 32.7734Z" fill="black" fill-opacity="0.48"/>
<path d="M52.4487 32.7734C53.4218 32.7734 54.2243 33.5667 54.0785 34.5289C53.8633 35.9488 53.3881 37.3223 52.6716 38.5785C51.6629 40.347 50.2107 41.8221 48.4584 42.8584C46.706 43.8948 44.7138 44.4566 42.6781 44.4886C40.6424 44.5206 38.6336 44.0216 36.8495 43.0408C35.0654 42.06 33.5677 40.6312 32.5039 38.8953C31.4402 37.1594 30.8471 35.1763 30.7831 33.1414C30.7192 31.1065 31.1866 29.09 32.1392 27.2908C32.8159 26.0127 33.7209 24.8755 34.8046 23.9329C35.5389 23.2942 36.6387 23.5467 37.1601 24.3684L37.4063 24.7563C37.9278 25.578 37.6653 26.6554 36.9826 27.349C36.4586 27.8814 36.0123 28.4892 35.6599 29.1548C35.0311 30.3424 34.7226 31.6732 34.7648 33.0163C34.807 34.3593 35.1985 35.6682 35.9006 36.8139C36.6026 37.9595 37.5911 38.9025 38.7686 39.5499C39.9461 40.1972 41.272 40.5265 42.6155 40.5054C43.9591 40.4843 45.2739 40.1135 46.4305 39.4295C47.5871 38.7455 48.5455 37.7719 49.2112 36.6048C49.5844 35.9505 49.8584 35.248 50.0272 34.5203C50.247 33.5722 51.016 32.7734 51.9892 32.7734H52.4487Z" fill="black" fill-opacity="0.6"/>
<path d="M52.4487 32.7734C53.4218 32.7734 54.2243 33.5666 54.0785 34.5288C53.9093 35.6454 53.5791 36.7347 53.0957 37.7621C52.3613 39.3227 51.2915 40.7019 49.9626 41.8012C48.6337 42.9006 47.0784 43.693 45.4079 44.122C43.7374 44.5509 41.9927 44.6057 40.2986 44.2825C38.6044 43.9594 37.0025 43.2661 35.6071 42.2524C34.2118 41.2386 33.0575 39.9293 32.2266 38.4179C31.3957 36.9065 30.9088 35.2304 30.8005 33.5091C30.7292 32.3758 30.8232 31.2415 31.0769 30.141C31.2955 29.1927 32.3337 28.7506 33.2385 29.1088L34.7551 29.7093C35.6599 30.0675 36.0765 31.0958 35.9712 32.0633C35.9308 32.4348 35.922 32.8102 35.9456 33.1853C36.0063 34.1493 36.279 35.0879 36.7443 35.9343C37.2096 36.7807 37.856 37.5139 38.6374 38.0816C39.4188 38.6493 40.3158 39.0375 41.2646 39.2185C42.2133 39.3995 43.1903 39.3688 44.1258 39.1286C45.0613 38.8884 45.9322 38.4446 46.6764 37.829C47.4206 37.2133 48.0197 36.441 48.431 35.567C48.591 35.2269 48.7211 34.8747 48.8202 34.5144C49.0784 33.5761 49.8443 32.7734 50.8175 32.7734H52.4487Z" fill="black" fill-opacity="0.72"/>
<path d="M52.4487 32.7734C53.4219 32.7734 54.2244 33.5667 54.0785 34.5289C53.7247 36.8639 52.6706 39.0525 51.0352 40.794C48.9951 42.9664 46.204 44.2798 43.2298 44.4669C40.2555 44.6541 37.3218 43.7008 35.0255 41.8012C33.1848 40.2784 31.8647 38.2392 31.2209 35.967C30.9557 35.0307 31.6524 34.143 32.618 34.021L35.1662 33.6991C36.1317 33.5771 36.9896 34.2828 37.4033 35.1637C37.7528 35.9081 38.2645 36.5734 38.9092 37.1067C40.0114 38.0185 41.4196 38.4761 42.8472 38.3863C44.2748 38.2965 45.6146 37.666 46.5938 36.6233C47.1665 36.0133 47.5908 35.2892 47.8443 34.5068C48.1442 33.581 48.907 32.7734 49.8802 32.7734H52.4487Z" fill="black" fill-opacity="0.84"/>
<path d="M54.2114 32.7744C54.2114 35.2487 53.428 37.6596 51.9737 39.6613C50.5193 41.6631 48.4685 43.1531 46.1153 43.9177C43.7621 44.6823 41.2272 44.6823 38.874 43.9177C37.0822 43.3355 35.4658 42.3328 34.1545 41.0038C33.471 40.3111 33.6539 39.1976 34.4412 38.6256L37.2775 36.5649C38.0648 35.9929 39.1583 36.2067 39.9794 36.729C40.3105 36.9396 40.6687 37.109 41.0464 37.2317C41.9877 37.5376 43.0016 37.5376 43.9429 37.2317C44.8842 36.9259 45.7045 36.3299 46.2863 35.5292C46.5197 35.2079 46.7099 34.8603 46.8539 34.4953C47.2113 33.5901 47.9703 32.7744 48.9434 32.7744H54.2114Z" fill="black" fill-opacity="0.96"/>
<defs>
<linearGradient id="paint0_linear_562_373" x1="42.4882" y1="0.875975" x2="0.824217" y2="84.204" gradientUnits="userSpaceOnUse">
<stop stop-color="white"/>
<stop offset="1" stop-color="#CCCCCC"/>
</linearGradient>
</defs>
</svg>