<svg width="265" height="175" viewBox="0 0 265 175" fill="none" xmlns="http://www.w3.org/2000/svg">
<path d="M36.5576 26.0291C48.6532 26.5923 60.6524 23.6347 71.1007 17.515C83.6537 10.1626 99.1987 10.1626 111.752 17.515C122.2 23.6347 134.199 26.5923 146.295 26.0291C160.827 25.3526 174.591 32.5767 182.289 44.9205C188.697 55.1949 197.947 63.39 208.919 68.5124C222.101 74.6666 230.931 87.4599 232.011 101.967C232.91 114.043 237.293 125.598 244.627 135.232C253.439 146.808 255.313 162.239 249.527 175.587C244.711 186.697 243.222 198.965 245.239 210.904C247.662 225.249 242.15 239.784 230.824 248.914C221.397 256.513 214.376 266.684 210.614 278.193C206.093 292.02 194.458 302.329 180.186 305.149C168.307 307.497 157.365 313.241 148.684 321.683C138.256 331.826 123.162 335.546 109.215 331.411C97.6053 327.97 85.247 327.97 73.6377 331.411C59.69 335.546 44.5967 331.826 34.1681 321.683C25.4879 313.241 14.5451 307.497 2.66626 305.149C-11.6053 302.329 -23.2409 292.02 -27.7614 278.193C-31.524 266.684 -38.5443 256.513 -47.9713 248.914C-59.2973 239.784 -64.8096 225.249 -62.3864 210.904C-60.3694 198.965 -61.859 186.697 -66.6747 175.587C-72.4603 162.239 -70.5866 146.808 -61.7748 135.232C-54.4403 125.598 -50.0579 114.043 -49.159 101.967C-48.079 87.4599 -39.2484 74.6666 -26.0667 68.5124C-15.0949 63.39 -5.84456 55.1949 0.563049 44.9205C8.26131 32.5767 22.0257 25.3526 36.5576 26.0291Z" fill="#B3DBFF" stroke="#D7ECFF" stroke-width="22.3722"/>
</svg>
