<svg width="178" height="32" fill="none" xmlns="http://www.w3.org/2000/svg"><path d="M147.66 17.389c0 7.589-6.152 13.74-13.741 13.74-7.589 0-13.741-6.151-13.741-13.74 0-7.59 6.152-13.741 13.741-13.741 7.589 0 13.741 6.152 13.741 13.74zm-22.48 0a8.739 8.739 0 008.739 8.738c4.826 0 8.945-3.944 8.945-8.77 0-4.827-4.119-8.707-8.945-8.707a8.739 8.739 0 00-8.739 8.739z" fill="#E9F3FA"/><path d="M10.564 7.161c1.028-2.437 4.482-2.437 5.509 0l8.814 20.915a2.193 2.193 0 11-4.074 1.622l-4.696-12.517c-.97-2.585-4.627-2.585-5.597 0L5.824 29.698a2.193 2.193 0 11-4.074-1.622l8.814-20.915zM56.083 17.395c0 7.58-6.146 13.726-13.726 13.726-7.58 0-13.726-6.145-13.726-13.726 0-7.58 6.145-13.726 13.726-13.726 7.58 0 13.726 6.145 13.726 13.726zm-22.455 0a8.729 8.729 0 008.729 8.729c4.82 0 8.934-3.94 8.934-8.761s-4.113-8.697-8.934-8.697a8.729 8.729 0 00-8.73 8.729z" fill="#fff"/><rect x="49.998" y="22.905" width="7.437" height="4.791" rx="2.396" transform="rotate(35 49.998 22.905)" fill="#fff"/><path d="M58.547 6.111a2.41 2.41 0 114.82 0v11.992a8.032 8.032 0 0016.064 0V6.111a2.41 2.41 0 014.82 0V18.27c0 7.098-5.755 12.852-12.852 12.852-7.098 0-12.852-5.754-12.852-12.852V6.11zM96.805 7.161c1.027-2.437 4.481-2.437 5.508 0l8.814 20.915a2.193 2.193 0 11-4.074 1.622l-4.696-12.517c-.97-2.585-4.626-2.585-5.597 0l-4.696 12.517a2.193 2.193 0 11-4.074-1.622l8.815-20.915z" fill="#fff"/><path d="M150.109 11.813a8.166 8.166 0 018.166-8.165h16.691a2.626 2.626 0 010 5.251h-16.835a2.986 2.986 0 100 5.972h11.331a8.13 8.13 0 110 16.259h-16.799a2.554 2.554 0 010-5.108h16.799a3.022 3.022 0 100-6.043h-11.187a8.166 8.166 0 01-8.166-8.166z" fill="#E9F3FA"/></svg>