<svg width="1052" height="192" viewBox="0 0 1052 192" fill="none" xmlns="http://www.w3.org/2000/svg">
<path d="M74.3044 13.8113C76.4753 8.6601 83.7748 8.66011 85.9457 13.8113L156.554 181.351C158.309 185.514 155.252 190.12 150.734 190.12H134.555C131.922 190.12 129.565 188.488 128.641 186.023L86.039 72.4758C83.9891 67.0123 76.261 67.0123 74.2111 72.4758L31.6095 186.023C30.6847 188.488 28.3282 190.12 25.6956 190.12H9.51657C4.99825 190.12 1.94114 185.514 3.69589 181.351L74.3044 13.8113Z" fill="white"/>
<path d="M346.739 104.551C346.739 151.812 308.426 190.125 261.164 190.125C213.903 190.125 175.59 151.812 175.59 104.551C175.59 57.2895 213.903 18.9766 261.164 18.9766C308.426 18.9766 346.739 57.2895 346.739 104.551ZM206.744 104.551C206.744 134.606 231.109 158.971 261.164 158.971C291.219 158.971 316.868 134.404 316.868 104.349C316.868 74.2939 291.219 50.1311 261.164 50.1311C231.109 50.1311 206.744 74.4957 206.744 104.551Z" fill="white"/>
<rect x="308.762" y="138.892" width="46.3684" height="29.8703" rx="7.79034" transform="rotate(35 308.762 138.892)" fill="white"/>
<path d="M362.074 34.2022C362.074 25.9049 368.8 19.1787 377.098 19.1787V19.1787C385.395 19.1787 392.121 25.9049 392.121 34.2022V108.966C392.121 136.624 414.542 159.044 442.199 159.044V159.044V159.044C469.857 159.044 492.277 136.624 492.277 108.966V34.2022C492.277 25.9049 499.004 19.1787 507.301 19.1787V19.1787C515.598 19.1787 522.324 25.9049 522.324 34.2022V110.001C522.324 154.252 486.451 190.126 442.199 190.126V190.126V190.126C397.947 190.126 362.074 154.252 362.074 110.001V34.2022Z" fill="white"/>
<path d="M611.984 13.8113C614.155 8.6601 621.454 8.66011 623.625 13.8113L694.234 181.351C695.989 185.514 692.932 190.12 688.413 190.12H672.234C669.602 190.12 667.245 188.488 666.32 186.023L623.719 72.4758C621.669 67.0123 613.941 67.0123 611.891 72.4758L569.289 186.023C568.364 188.488 566.008 190.12 563.375 190.12H547.196C542.678 190.12 539.621 185.514 541.376 181.351L611.984 13.8113Z" fill="white"/>
<path d="M913.083 35.3525H966.853C1005.42 35.3525 1036.68 66.6147 1036.68 105.179C1036.68 144.4 1004.85 176.692 966.009 176.692H912.186C902.882 176.692 895.34 169.15 895.34 159.846V156.723V122.169V53.0954C895.34 43.2963 903.284 35.3525 913.083 35.3525Z" stroke="#00AEFF" stroke-width="30"/>
<rect x="806.559" y="20.3525" width="30.5332" height="170.477" rx="8.62522" fill="#00AEFF"/>
</svg>
