<svg width="178" height="32" viewBox="0 0 178 32" fill="none" xmlns="http://www.w3.org/2000/svg">
<path d="M147.66 17.3888C147.66 24.9778 141.508 31.1299 133.919 31.1299C126.33 31.1299 120.178 24.9778 120.178 17.3888C120.178 9.79975 126.33 3.64764 133.919 3.64764C141.508 3.64764 147.66 9.79975 147.66 17.3888ZM125.18 17.3888C125.18 22.2149 129.093 26.1272 133.919 26.1272C138.745 26.1272 142.864 22.1825 142.864 17.3564C142.864 12.5302 138.745 8.65029 133.919 8.65029C129.093 8.65029 125.18 12.5626 125.18 17.3888Z" fill="#E9F3FA"/>
<path d="M10.5644 7.16119C11.5916 4.7238 15.0455 4.7238 16.0728 7.16119L24.8872 28.0761C25.4965 29.5217 24.4351 31.1208 22.8664 31.1208C21.9524 31.1208 21.1342 30.5539 20.8132 29.6982L16.1169 17.1811C15.147 14.5959 11.4902 14.5959 10.5203 17.1811L5.82402 29.6982C5.50296 30.5539 4.6848 31.1208 3.7708 31.1208C2.20211 31.1208 1.14073 29.5217 1.74995 28.0761L10.5644 7.16119Z" fill="white"/>
<path d="M56.0825 17.395C56.0825 24.9755 49.9373 31.1208 42.3567 31.1208C34.7761 31.1208 28.6309 24.9755 28.6309 17.395C28.6309 9.8144 34.7761 3.66913 42.3567 3.66913C49.9373 3.66913 56.0825 9.8144 56.0825 17.395ZM33.6279 17.395C33.6279 22.2157 37.5359 26.1237 42.3567 26.1237C47.1775 26.1237 51.2915 22.1834 51.2915 17.3626C51.2915 12.5418 47.1775 8.66621 42.3567 8.66621C37.5359 8.66621 33.6279 12.5742 33.6279 17.395Z" fill="white"/>
<rect x="49.998" y="22.9047" width="7.43734" height="4.7911" rx="2.39555" transform="rotate(35 49.998 22.9047)" fill="white"/>
<path d="M58.5469 6.11107C58.5469 4.78022 59.6257 3.70135 60.9566 3.70135C62.2874 3.70135 63.3663 4.78022 63.3663 6.11107V18.103C63.3663 22.5391 66.9625 26.1353 71.3987 26.1353C75.8348 26.1353 79.431 22.5391 79.431 18.103V6.11106C79.431 4.78022 80.5099 3.70135 81.8408 3.70135C83.1716 3.70135 84.2505 4.78022 84.2505 6.11107V18.2689C84.2505 25.3667 78.4965 31.1207 71.3987 31.1207C64.3008 31.1207 58.5469 25.3667 58.5469 18.2689V6.11107Z" fill="white"/>
<path d="M96.8047 7.16119C97.8319 4.7238 101.286 4.7238 102.313 7.16119L111.127 28.0761C111.737 29.5217 110.675 31.1208 109.107 31.1208C108.193 31.1208 107.374 30.5539 107.053 29.6982L102.357 17.1811C101.387 14.5959 97.7305 14.5959 96.7605 17.1811L92.0643 29.6982C91.7432 30.5539 90.925 31.1208 90.011 31.1208C88.4423 31.1208 87.381 29.5217 87.9902 28.0761L96.8047 7.16119Z" fill="white"/>
<path d="M150.109 11.8132C150.109 7.30348 153.765 3.64764 158.275 3.64764H174.966C176.416 3.64764 177.592 4.82331 177.592 6.27356C177.592 7.72382 176.416 8.89948 174.966 8.89948H158.131C156.482 8.89948 155.145 10.2362 155.145 11.8851C155.145 13.534 156.482 14.8708 158.131 14.8708H169.462C173.952 14.8708 177.592 18.5105 177.592 23.0003C177.592 27.4901 173.952 31.1299 169.462 31.1299H152.663C151.253 31.1299 150.109 29.9864 150.109 28.5759C150.109 27.1654 151.253 26.0219 152.663 26.0219H169.462C171.131 26.0219 172.484 24.6691 172.484 23.0003C172.484 21.3315 171.131 19.9787 169.462 19.9787H158.275C153.765 19.9787 150.109 16.3229 150.109 11.8132Z" fill="#E9F3FA"/>
</svg>
