<svg width="85" height="85" fill="none" xmlns="http://www.w3.org/2000/svg"><rect x=".824" y=".876" width="83.328" height="83.328" rx="20.832" fill="url(#prefix__paint0_linear_562_373)"/><path d="M12.824 54.422c.41-.972 1.787-.972 2.196 0l3.515 8.34a.875.875 0 11-1.624.647l-1.873-4.992c-.387-1.03-1.845-1.03-2.232 0l-1.873 4.992a.874.874 0 11-1.624-.647l3.515-8.34zM30.979 58.502a5.474 5.474 0 11-10.948 0 5.474 5.474 0 0110.948 0zm-8.955 0a3.48 3.48 0 003.48 3.48c1.923 0 3.564-1.57 3.564-3.493 0-1.922-1.64-3.468-3.563-3.468a3.48 3.48 0 00-3.481 3.48z" fill="#000"/><rect x="28.547" y="60.699" width="2.966" height="1.911" rx=".955" transform="rotate(35 28.547 60.7)" fill="#000"/><path d="M31.96 54.002a.961.961 0 111.923 0v4.782a3.203 3.203 0 106.406 0v-4.782a.961.961 0 111.922 0v4.848a5.125 5.125 0 01-10.25 0v-4.848zM47.218 54.422c.41-.972 1.787-.972 2.197 0l3.515 8.34a.875.875 0 11-1.625.647l-1.873-4.992c-.386-1.03-1.845-1.03-2.232 0l-1.872 4.992a.875.875 0 11-1.625-.647l3.515-8.34z" fill="#000"/><path d="M66.086 55.212c0-.618.5-1.118 1.118-1.118h3.439a4.45 4.45 0 014.45 4.449c0 2.5-2.03 4.557-4.504 4.557h-3.443a1.06 1.06 0 01-1.06-1.06V55.21z" stroke="#00AEFF" stroke-width="1.953"/><rect x="60.387" y="53.12" width="1.953" height="10.904" rx=".977" fill="#00AEFF"/><path d="M54.21 32.773c0 6.471-5.245 11.717-11.716 11.717-6.47 0-11.717-5.246-11.717-11.717 0-6.47 5.246-11.716 11.717-11.716s11.717 5.245 11.717 11.716zm-22.312 0c0 5.852 4.744 10.596 10.596 10.596S53.09 38.625 53.09 32.773s-4.744-10.596-10.596-10.596-10.596 4.744-10.596 10.596z" fill="#fff" fill-opacity=".12"/><path d="M53.508 32.773c.388 0 .705.315.682.703a11.717 11.717 0 11-3.651-9.221.671.671 0 01-.016.979.742.742 0 01-1.011-.015 10.31 10.31 0 103.269 8.257.742.742 0 01.727-.703z" fill="#000" fill-opacity=".24"/><path d="M53.04 32.773c.646 0 1.177.526 1.112 1.17a11.716 11.716 0 11-9.168-12.619c.633.138.969.805.769 1.42-.2.616-.86.945-1.496.823a9.374 9.374 0 107.537 10.375c.081-.642.598-1.169 1.245-1.169z" fill="#000" fill-opacity=".36"/><path d="M52.57 32.773c.906 0 1.653.738 1.526 1.635a11.718 11.718 0 11-15.382-12.725c.858-.292 1.722.303 1.892 1.192.17.89-.424 1.735-1.264 2.073a8.436 8.436 0 1011.43 9.455c.174-.889.892-1.63 1.798-1.63z" fill="#000" fill-opacity=".48"/><path d="M52.449 32.773c.973 0 1.775.794 1.63 1.756a11.718 11.718 0 11-19.274-10.596c.734-.639 1.834-.386 2.355.435l.246.388c.522.822.26 1.9-.423 2.593a7.732 7.732 0 1013.044 7.171c.22-.948.989-1.747 1.962-1.747h.46z" fill="#000" fill-opacity=".6"/><path d="M52.449 32.773c.973 0 1.775.794 1.63 1.756a11.718 11.718 0 01-18.472 7.723 11.717 11.717 0 01-4.53-12.111c.218-.948 1.257-1.39 2.162-1.032l1.516.6c.905.358 1.322 1.387 1.216 2.354a6.565 6.565 0 002.666 6.019 6.561 6.561 0 0010.183-3.568c.258-.938 1.024-1.74 1.998-1.74h1.63z" fill="#000" fill-opacity=".72"/><path d="M52.449 32.773c.973 0 1.775.794 1.63 1.756a11.716 11.716 0 01-22.858 1.438c-.265-.936.431-1.824 1.397-1.946l2.548-.322c.966-.122 1.824.584 2.237 1.465a5.622 5.622 0 009.19 1.46 5.625 5.625 0 001.251-2.117c.3-.926 1.063-1.734 2.036-1.734h2.569z" fill="#000" fill-opacity=".84"/><path d="M54.211 32.774a11.717 11.717 0 01-20.056 8.23c-.684-.693-.501-1.806.286-2.378l2.837-2.061c.787-.572 1.88-.358 2.701.164a4.685 4.685 0 006.875-2.234c.357-.905 1.116-1.72 2.09-1.72h5.267z" fill="#000" fill-opacity=".96"/><defs><linearGradient id="prefix__paint0_linear_562_373" x1="42.488" y1=".876" x2=".824" y2="84.204" gradientUnits="userSpaceOnUse"><stop stop-color="#fff"/><stop offset="1" stop-color="#CCC"/></linearGradient></defs></svg>