<svg width="798" height="388" viewBox="0 0 798 388" fill="none" xmlns="http://www.w3.org/2000/svg">
<path d="M454.364 -584.957C491.739 -606.848 538.023 -606.848 575.398 -584.957C606.507 -566.736 642.233 -557.93 678.246 -559.607C721.513 -561.621 762.496 -540.112 785.416 -503.36C804.494 -472.769 832.036 -448.369 864.703 -433.118C903.951 -414.794 930.243 -376.703 933.458 -333.509C936.135 -297.556 949.183 -263.152 971.021 -234.466C997.257 -200.002 1002.84 -154.056 985.609 -114.315C971.271 -81.2362 966.836 -44.7089 972.841 -9.16034C980.056 33.5486 963.644 76.8245 929.922 104.008C901.854 126.634 880.952 156.917 869.749 191.184C856.29 232.354 821.646 263.046 779.154 271.444C743.786 278.435 711.205 295.535 685.361 320.671C654.311 350.87 609.372 361.946 567.844 349.636C533.279 339.389 496.483 339.389 461.918 349.636C420.39 361.946 375.451 350.87 344.401 320.671C318.556 295.534 285.976 278.435 250.608 271.444C208.116 263.046 173.472 232.354 160.013 191.184C148.81 156.917 127.908 126.634 99.8395 104.008C66.1178 76.8245 49.7054 33.5486 56.9204 -9.16034C62.9257 -44.7088 58.4905 -81.2361 44.1523 -114.315C26.9261 -154.056 32.505 -200.002 58.7413 -234.466C80.579 -263.152 93.6269 -297.556 96.3034 -333.509C99.519 -376.703 125.811 -414.794 165.058 -433.118C197.726 -448.369 225.268 -472.769 244.346 -503.36C267.266 -540.112 308.248 -561.621 351.516 -559.607C387.529 -557.93 423.255 -566.736 454.364 -584.957Z" fill="#B3DBFF" stroke="#D7ECFF" stroke-width="66.611"/>
</svg>
