<?xml version="1.0" standalone="no"?>
<!DOCTYPE svg PUBLIC "-//W3C//DTD SVG 20010904//EN"
 "http://www.w3.org/TR/2001/REC-SVG-20010904/DTD/svg10.dtd">
<svg version="1.0" xmlns="http://www.w3.org/2000/svg"
 width="533.000000pt" height="581.000000pt" viewBox="0 0 533.000000 581.000000"
 preserveAspectRatio="xMidYMid meet">

<g transform="translate(0.000000,581.000000) scale(0.100000,-0.100000)"
fill="#000000" stroke="none">
<path d="M1443 5800 c-164 -12 -227 -55 -258 -176 -13 -52 -15 -341 -17 -2299
l-3 -2240 129 -175 c71 -96 172 -231 225 -300 l96 -125 22 135 c12 74 25 153
27 175 13 102 64 432 122 795 14 85 33 211 44 280 10 69 21 141 24 160 21 131
67 440 77 513 12 87 35 137 62 137 7 0 51 -34 99 -75 48 -41 89 -75 91 -75 5
0 15 93 22 215 4 70 10 94 25 110 19 20 20 36 20 278 l0 257 -55 0 -55 0 0 55
0 55 115 0 115 0 0 -361 0 -360 93 -88 c50 -49 109 -102 129 -120 37 -32 37
-32 65 -15 15 10 45 31 66 48 l39 29 -33 14 c-79 33 -159 132 -159 196 0 26 2
27 50 27 49 0 50 -1 71 -44 25 -54 46 -74 96 -92 71 -25 97 -19 178 42 80 61
88 73 88 149 0 103 -41 163 -126 186 -84 23 -170 -6 -215 -71 -26 -38 -29 -40
-77 -37 l-50 2 -3 248 -2 247 265 0 265 0 0 -50 0 -50 -210 0 -210 0 0 -131 0
-131 30 25 c42 35 94 51 170 51 84 0 133 -17 186 -66 61 -56 87 -123 87 -226
0 -75 -3 -90 -34 -150 l-34 -67 15 -91 15 -92 60 39 c33 21 65 39 71 39 32 0
53 -75 118 -410 3 -14 28 -133 55 -265 28 -132 78 -375 111 -540 33 -165 72
-357 87 -426 l26 -126 251 102 251 102 0 2274 c0 1789 -3 2283 -12 2315 -27
88 -85 143 -171 164 -30 7 -210 14 -499 17 -409 5 -453 4 -453 -11 0 -10 -5
-13 -16 -9 -13 5 -13 7 -2 15 8 5 -12 7 -52 6 -51 -2 -65 -6 -64 -18 1 -12 -7
-15 -32 -12 -19 2 -34 9 -34 16 0 6 -21 12 -51 13 -49 2 -51 1 -45 -23 7 -26
-8 -34 -18 -9 -3 8 -11 15 -18 15 -9 0 -8 -3 2 -10 11 -7 11 -10 2 -10 -7 0
-10 -5 -6 -11 4 -7 -1 -10 -12 -7 -12 2 -19 12 -19 28 l0 25 -555 1 c-305 1
-601 -2 -657 -6z m1004 -6 c-3 -3 -12 -4 -19 -1 -8 3 -5 6 6 6 11 1 17 -2 13
-5z m184 -17 c-10 -9 -11 -8 -5 6 3 10 9 15 12 12 3 -3 0 -11 -7 -18z m1287
-139 c7 -7 12 -34 12 -60 l0 -48 -40 0 -40 0 0 50 c0 36 5 52 18 59 23 14 36
13 50 -1z m-138 -53 l0 -55 -67 0 -68 1 60 54 c33 30 63 55 68 55 4 0 7 -25 7
-55z m-2384 30 c6 -14 8 -13 19 2 20 27 25 13 12 -30 -14 -45 -25 -43 -42 6
-12 35 -1 55 11 22z m137 3 c4 -10 8 -9 16 2 10 13 13 13 22 -3 7 -13 15 -15
28 -8 24 13 43 -2 39 -30 -3 -21 -9 -24 -45 -26 -40 -2 -43 0 -43 23 0 15 -4
23 -10 19 -6 -4 -8 -15 -5 -26 4 -13 2 -19 -8 -19 -14 0 -27 45 -19 68 5 16
19 15 25 0z m137 -28 c0 -22 -4 -40 -10 -40 -5 0 -10 18 -10 40 0 22 5 40 10
40 6 0 10 -18 10 -40z m85 30 c5 -8 11 -7 21 1 8 6 25 8 39 5 22 -6 26 -11 23
-39 -2 -25 -8 -33 -26 -35 -13 -2 -29 2 -37 8 -9 7 -15 8 -20 0 -3 -5 -17 -10
-31 -10 -21 0 -24 4 -24 40 0 36 3 40 24 40 14 0 28 -5 31 -10z m215 -5 c0 -8
7 -15 15 -15 8 0 15 7 15 15 0 8 5 15 10 15 6 0 10 -7 10 -16 0 -13 3 -14 14
-5 11 9 20 10 35 1 22 -11 26 -27 13 -47 -11 -17 -82 -14 -82 4 0 7 -7 13 -15
13 -8 0 -15 -7 -15 -15 0 -8 -4 -15 -10 -15 -5 0 -10 18 -10 40 0 22 5 40 10
40 6 0 10 -7 10 -15z m260 5 c0 -5 -4 -10 -10 -10 -5 0 -10 -13 -10 -30 0 -20
-5 -30 -15 -30 -10 0 -15 10 -15 30 0 17 -4 30 -10 30 -5 0 -10 -13 -10 -30 0
-16 -4 -30 -10 -30 -5 0 -10 18 -10 40 l0 40 45 0 c25 0 45 -4 45 -10z m-732
-43 c-4 -33 -52 -31 -56 2 -2 13 2 27 9 32 20 12 51 -9 47 -34z m422 13 c0 -5
-11 -10 -25 -10 -14 0 -25 5 -25 10 0 6 11 10 25 10 14 0 25 -4 25 -10z m190
-30 c0 -5 -4 -10 -10 -10 -5 0 -10 5 -10 10 0 6 5 10 10 10 6 0 10 -4 10 -10z
m-594 -568 c17 -11 16 -79 -1 -86 -21 -8 -45 3 -45 20 0 12 5 12 23 4 l22 -11
-22 17 c-25 18 -30 49 -10 57 17 8 21 8 33 -1z m301 -8 c3 -9 1 -25 -6 -35 -7
-12 -7 -19 -1 -19 5 0 10 -7 10 -15 0 -10 -10 -15 -30 -15 -35 0 -38 15 -8 47
12 13 18 26 14 30 -4 4 -11 1 -16 -7 -11 -18 -25 -6 -17 15 8 20 46 19 54 -1z
m73 6 c0 -5 -10 -11 -22 -11 l-23 -2 22 -4 c12 -2 25 -13 28 -24 4 -10 13 -19
21 -19 8 0 14 -7 14 -15 0 -17 -16 -20 -25 -5 -4 6 -13 5 -25 -2 -27 -17 -46
3 -48 52 -3 38 -2 40 28 40 16 0 30 -4 30 -10z m115 -22 l13 -33 4 30 c2 24 8
30 28 30 23 0 25 -4 25 -45 0 -35 -4 -45 -18 -48 -10 -2 -27 4 -38 14 -10 9
-19 12 -19 7 0 -14 -26 -24 -44 -17 -35 14 -23 94 14 94 14 0 25 -11 35 -32z
m-437 -21 c4 -33 22 -26 22 9 0 13 5 24 10 24 6 0 10 -18 10 -39 0 -35 -3 -40
-22 -39 -34 2 -48 17 -48 50 0 37 24 33 28 -5z m123 -12 c3 -22 7 -32 8 -22 0
9 8 17 16 17 13 0 14 -4 5 -20 -12 -22 -12 -22 -34 -14 -9 3 -16 17 -16 29 0
34 -18 41 -22 8 -5 -45 -28 -40 -28 7 0 41 1 41 33 38 29 -3 33 -7 38 -43z"/>
<path d="M2045 5580 c3 -5 8 -10 11 -10 2 0 4 5 4 10 0 6 -5 10 -11 10 -5 0
-7 -4 -4 -10z"/>
<path d="M1855 4940 c-3 -5 -1 -10 4 -10 6 0 11 5 11 10 0 6 -2 10 -4 10 -3 0
-8 -4 -11 -10z"/>
<path d="M1967 4973 c-11 -10 -8 -43 3 -43 6 0 10 11 10 25 0 26 -2 29 -13 18z"/>
<path d="M2040 4970 c0 -5 5 -10 10 -10 6 0 10 5 10 10 0 6 -4 10 -10 10 -5 0
-10 -4 -10 -10z"/>
<path d="M2040 4930 c0 -5 5 -10 10 -10 6 0 10 5 10 10 0 6 -4 10 -10 10 -5 0
-10 -4 -10 -10z"/>
<path d="M2444 2374 c-32 -34 -34 -39 -36 -117 -2 -109 1 -149 16 -200 11 -38
16 -43 56 -53 l45 -11 -27 -17 c-15 -10 -32 -15 -38 -11 -13 8 -1 -24 46 -120
20 -41 40 -75 44 -75 10 0 21 60 13 73 -3 5 -2 7 3 4 6 -3 25 10 43 28 18 19
46 40 62 47 16 7 29 16 29 20 0 9 -38 21 -48 14 -10 -6 -24 4 -38 28 -18 34
-42 43 -57 22 -9 -12 -16 -15 -21 -8 -3 6 0 14 7 19 26 15 29 48 7 76 -25 31
-25 42 -1 59 11 8 26 33 34 56 29 83 90 131 197 156 l55 13 -43 13 c-34 11
-57 11 -105 3 -49 -8 -68 -7 -89 3 -15 8 -48 14 -74 14 -41 0 -51 -5 -80 -36z"/>
<path d="M2725 2227 c-36 -36 -52 -89 -41 -133 5 -17 12 -24 21 -20 8 3 15 1
15 -4 0 -6 -6 -10 -12 -10 -7 0 -1 -8 12 -17 14 -9 27 -20 30 -23 18 -22 60
-40 95 -40 41 0 41 0 58 55 18 58 23 155 9 155 -5 0 -31 -7 -58 -15 -65 -20
-64 -20 -64 19 0 41 -8 66 -22 66 -6 0 -25 -15 -43 -33z m180 -77 c-3 -5 -12
-10 -18 -10 -7 0 -6 4 3 10 19 12 23 12 15 0z"/>
<path d="M2121 1933 c-9 -22 -11 -45 -6 -70 l8 -38 9 40 c5 22 8 54 6 70 l-3
30 -14 -32z"/>
<path d="M3244 1904 c-18 -14 -18 -15 4 -4 12 6 22 13 22 15 0 8 -5 6 -26 -11z"/>
<path d="M2766 1875 c-22 -8 -53 -27 -70 -44 -26 -26 -30 -39 -33 -93 -2 -35
1 -70 7 -78 9 -13 17 -8 50 29 27 29 39 50 35 63 -3 10 -8 27 -11 38 -3 11 -2
19 3 18 4 -1 18 3 30 10 17 9 22 9 26 -1 7 -21 26 28 20 51 -6 25 -6 25 -57 7z"/>
<path d="M3460 1415 c-14 -8 -20 -14 -14 -15 5 0 19 7 30 15 24 18 16 19 -16
0z"/>
<path d="M2591 1276 c2 -106 5 -133 16 -129 7 3 13 1 13 -5 0 -6 -6 -12 -12
-15 -10 -3 -12 -67 -10 -288 2 -156 6 -316 10 -356 l7 -72 80 32 80 32 -1 85
c-1 66 -7 103 -29 163 -24 66 -31 78 -47 73 -14 -3 -18 -1 -14 11 3 8 9 26 12
39 8 31 18 30 43 -3 12 -14 23 -24 24 -22 3 4 -2 147 -17 458 -3 62 -7 115
-10 118 -2 2 -18 -3 -35 -11 -40 -21 -54 -20 -76 4 -10 11 -22 20 -27 20 -5 0
-8 -58 -7 -134z m107 -361 c6 -14 10 -25 7 -25 -7 0 -35 32 -35 41 0 18 17 9
28 -16z"/>
<path d="M3378 1374 c-27 -13 -48 -27 -48 -29 0 -3 23 6 50 20 28 14 50 28 50
30 0 7 1 7 -52 -21z"/>
<path d="M3480 1060 c-30 -16 -50 -29 -45 -29 6 0 35 13 65 29 30 16 51 29 45
29 -5 0 -35 -13 -65 -29z"/>
<path d="M2140 1006 c0 -2 8 -10 18 -17 15 -13 16 -12 3 4 -13 16 -21 21 -21
13z"/>
<path d="M2070 980 c-9 -6 -10 -10 -3 -10 6 0 15 5 18 10 8 12 4 12 -15 0z"/>
<path d="M1730 797 c0 -2 28 -21 63 -42 34 -21 72 -45 85 -53 12 -8 22 -12 22
-9 0 3 -33 25 -72 49 -92 57 -98 60 -98 55z"/>
<path d="M1925 675 c22 -18 86 -53 70 -38 -5 6 -28 20 -50 32 -22 13 -31 15
-20 6z"/>
<path d="M2114 561 c7 -11 46 -35 46 -28 0 3 -12 12 -26 22 -15 9 -23 12 -20
6z"/>
<path d="M2200 506 c0 -3 9 -10 20 -16 11 -6 20 -8 20 -6 0 3 -9 10 -20 16
-11 6 -20 8 -20 6z"/>
<path d="M2330 426 c0 -3 9 -10 20 -16 11 -6 20 -8 20 -6 0 3 -9 10 -20 16
-11 6 -20 8 -20 6z"/>
<path d="M1770 307 c0 -7 175 -107 186 -107 10 0 -23 21 -118 74 -38 21 -68
35 -68 33z"/>
</g>
</svg>
