<svg viewBox="0 0 160 160" fill="none" xmlns="http://www.w3.org/2000/svg"><path d="M156.172 80c2.114 0 3.836 1.713 3.735 3.824a79.998 79.998 0 01-159.44 4.8 80 80 0 01156.763-29.49c.551 2.04-.764 4.083-2.828 4.536-2.064.453-4.095-.856-4.656-2.894a72.348 72.348 0 102.499 23.048c.112-2.11 1.814-3.825 3.927-3.825z" fill="#08F"/><path d="M155.199 80c2.65 0 4.815 2.15 4.656 4.797a80 80 0 11-24.928-62.96c1.928 1.82 1.823 4.87-.11 6.685-1.932 1.815-4.959 1.706-6.901-.099a70.402 70.402 0 00-114.87 29.822 70.399 70.399 0 10137.189 26.55c.181-2.644 2.313-4.796 4.964-4.796z" fill="#08F"/><path d="M151.999 80c4.418 0 8.041 3.59 7.6 7.986a80.003 80.003 0 01-54.879 68.097A79.999 79.999 0 1197.001 1.828c4.317.939 6.613 5.494 5.247 9.696-1.365 4.202-5.876 6.448-10.215 5.618A63.998 63.998 0 10143.5 87.979c.551-4.384 4.081-7.98 8.5-7.98z" fill="#08F"/><path d="M148.799 80c6.185 0 11.28 5.038 10.417 11.163A79.998 79.998 0 1154.19 4.278c5.855-1.996 11.759 2.065 12.918 8.14 1.159 6.077-2.893 11.843-8.63 14.154A57.595 57.595 0 0024.21 65.675a57.6 57.6 0 10112.303 25.454c1.195-6.069 6.1-11.13 12.286-11.13z" fill="#08F"/><path d="M147.967 80c6.645 0 12.124 5.416 11.128 11.986a80 80 0 01-77.84 68.003 80 80 0 01-53.758-140.35c5.014-4.36 12.523-2.637 16.083 2.973l1.681 2.649c3.56 5.61 1.768 12.966-2.893 17.702a52.8 52.8 0 0038.46 89.829 52.797 52.797 0 0050.606-40.865c1.501-6.473 6.751-11.928 13.396-11.928h3.137z" fill="#08F"/><path d="M147.967 80c6.645 0 12.124 5.416 11.128 11.986A79.998 79.998 0 112.045 62.027c1.493-6.475 8.581-9.494 14.76-7.048l10.354 4.1c6.178 2.446 9.023 9.467 8.304 16.072a44.808 44.808 0 005.278 26.431 44.796 44.796 0 0050.4 21.809 44.8 44.8 0 0032.052-31.504c1.763-6.407 6.992-11.888 13.637-11.888h11.137z" fill="#08F"/><path d="M147.967 80c6.645 0 12.124 5.416 11.128 11.986a79.998 79.998 0 01-156.066 9.819c-1.811-6.393 2.946-12.454 9.539-13.287l17.398-2.198c6.592-.833 12.45 3.986 15.275 10a38.402 38.402 0 0037.17 22.003 38.398 38.398 0 0034.118-26.488C118.578 85.514 123.786 80 130.43 80h17.537z" fill="#08F"/><path d="M160 79.996A79.997 79.997 0 0155.28 156.08a79.998 79.998 0 01-32.224-19.895c-4.667-4.73-3.418-12.333 1.958-16.238l19.365-14.07c5.376-3.906 12.842-2.446 18.449 1.12a32.004 32.004 0 0027.061 3.433 32.005 32.005 0 0019.876-18.684c2.44-6.18 7.622-11.75 14.267-11.75H160z" fill="#08F"/></svg>