<svg viewBox="0 0 160 160" fill="none" xmlns="http://www.w3.org/2000/svg">
<mask id="path-1-inside-1_22_433" fill="white">
<path d="M156.172 79.9994C158.286 79.9994 160.008 81.7134 159.907 83.8241C158.994 102.909 151.273 121.088 138.074 135.019C123.996 149.879 104.758 158.777 84.3181 159.882C63.8785 160.987 43.7929 154.215 28.1949 140.96C12.5969 127.704 2.67337 108.974 0.466516 88.6243C-1.74034 68.2741 3.93743 47.8522 16.3313 31.5614C28.7252 15.2706 46.8922 4.35038 67.0935 1.04815C87.2948 -2.25408 107.994 2.31294 124.93 13.8093C140.808 24.5877 152.247 40.6882 157.23 59.1341C157.781 61.174 156.466 63.2174 154.402 63.6704C152.338 64.1234 150.307 62.8137 149.746 60.7765C145.19 44.2429 134.89 29.8191 120.632 20.1405C105.316 9.7438 86.597 5.61363 68.328 8.6C50.0589 11.5864 33.6297 21.462 22.4213 36.1946C11.2129 50.9272 6.07823 69.3957 8.07399 87.7993C10.0697 106.203 19.0441 123.141 33.1501 135.129C47.2561 147.116 65.4205 153.24 83.905 152.241C102.39 151.242 119.788 143.195 132.519 129.757C144.371 117.246 151.339 100.95 152.245 83.824C152.357 81.7139 154.059 79.9994 156.172 79.9994Z"/>
<path d="M155.199 79.9994C157.849 79.9994 160.014 82.1507 159.855 84.7968C158.84 101.696 152.484 117.885 141.64 130.993C129.773 145.337 113.276 155.093 94.9897 158.582C76.7033 162.07 57.7729 159.072 41.4595 150.103C25.1461 141.135 12.4711 126.758 5.61805 109.449C-1.235 92.1402 -1.83703 72.9833 3.91566 55.2783C9.66835 37.5733 21.4156 22.4289 37.1337 12.4539C52.8518 2.4789 71.5566 -1.70212 90.0259 0.631091C106.904 2.76326 122.619 10.2134 134.927 21.8376C136.855 23.6578 136.75 26.7073 134.817 28.522C132.885 30.3367 129.858 30.2276 127.916 28.4233C117.148 18.4195 103.484 12.0074 88.8227 10.1553C72.5697 8.10206 56.1095 11.7814 42.2776 20.5594C28.4456 29.3374 18.1081 42.6645 13.0457 58.2449C7.98333 73.8252 8.51312 90.6833 14.5438 105.915C20.5745 121.147 31.7285 133.799 46.0843 141.691C60.4401 149.583 77.0989 152.221 93.1909 149.152C109.283 146.082 123.801 137.496 134.243 124.874C143.662 113.487 149.234 99.4592 150.235 84.7959C150.416 82.1511 152.548 79.9994 155.199 79.9994Z"/>
<path d="M151.999 79.9994C156.417 79.9994 160.04 83.59 159.599 87.9862C158.189 102.039 153.077 115.519 144.72 127.022C134.79 140.689 120.788 150.863 104.72 156.083C88.6531 161.304 71.3456 161.304 55.2783 156.083C39.211 150.863 25.2088 140.689 15.2787 127.022C5.34856 113.354 0.00022392 96.8936 0.000225397 79.9994C0.000226874 63.1052 5.34857 46.6448 15.2787 32.9771C25.2088 19.3094 39.211 9.13629 55.2783 3.91571C68.8003 -0.47786 83.2008 -1.17386 97.0011 1.82771C101.318 2.76672 103.614 7.3221 102.248 11.5241C100.883 15.7261 96.3725 17.9723 92.0331 17.1416C81.4737 15.12 70.5291 15.7836 60.2225 19.1325C47.3686 23.3089 36.1669 31.4474 28.2228 42.3816C20.2787 53.3157 16.0001 66.4841 16.0001 79.9994C16.0001 93.5147 20.2787 106.683 28.2228 117.617C36.1669 128.551 47.3686 136.69 60.2225 140.866C73.0763 145.043 86.9224 145.043 99.7762 140.866C112.63 136.69 123.832 128.551 131.776 117.617C138.146 108.85 142.159 98.6461 143.499 87.9788C144.05 83.595 147.58 79.9994 151.999 79.9994Z"/>
<path d="M148.799 79.9994C154.984 79.9994 160.079 85.0379 159.216 91.1629C157.632 102.398 153.67 113.213 147.545 122.865C139.411 135.683 127.797 145.921 114.061 152.385C100.325 158.848 85.0339 161.27 69.9728 159.368C54.9118 157.465 40.703 151.316 29.006 141.64C17.309 131.963 8.60677 119.158 3.91566 104.721C-0.775448 90.2828 -1.26175 74.8083 2.51354 60.1044C6.28884 45.4006 14.1699 32.0745 25.2362 21.6826C33.5696 13.857 43.4501 7.93859 54.1899 4.27795C60.0447 2.28235 65.9486 6.34282 67.1077 12.4188C68.2667 18.4947 64.2147 24.2607 58.4773 26.572C51.8801 29.2295 45.8015 33.0984 40.5699 38.0113C32.6021 45.4935 26.9278 55.0883 24.2096 65.675C21.4914 76.2618 21.8415 87.4034 25.2191 97.7986C28.5967 108.194 34.8623 117.413 43.2841 124.381C51.706 131.348 61.9363 135.775 72.7802 137.145C83.6242 138.515 94.6341 136.771 104.524 132.117C114.414 127.463 122.775 120.091 128.632 110.863C132.478 104.803 135.139 98.1072 136.513 91.129C137.708 85.06 142.613 79.9994 148.799 79.9994Z"/>
<path d="M147.967 79.9994C154.612 79.9994 160.091 85.4159 159.095 91.9856C157.626 101.681 154.381 111.059 149.489 119.636C142.602 131.71 132.687 141.782 120.722 148.858C108.757 155.934 95.155 159.77 81.2559 159.989C67.3569 160.207 53.6408 156.8 41.4595 150.103C29.2782 143.406 19.052 133.651 11.7889 121.799C4.52576 109.947 0.476336 96.4062 0.0397005 82.5123C-0.396935 68.6184 2.79429 54.8505 9.29887 42.5654C13.9194 33.8389 20.0984 26.0745 27.4972 19.6389C32.5108 15.2781 40.02 17.002 43.5804 22.6123L45.2613 25.261C48.8217 30.8713 47.0295 38.2271 42.3685 42.9629C38.7907 46.5982 35.7436 50.7478 33.337 55.293C29.044 63.4011 26.9378 72.4879 27.226 81.6579C27.5142 90.8279 30.1868 99.7645 34.9804 107.587C39.7741 115.41 46.5234 121.848 54.563 126.268C62.6027 130.688 71.6553 132.936 80.8287 132.792C90.0021 132.648 98.9796 130.116 106.876 125.446C114.773 120.776 121.317 114.129 125.863 106.159C128.411 101.692 130.282 96.8957 131.434 91.927C132.935 85.4541 138.185 79.9994 144.83 79.9994H147.967Z"/>
<path d="M147.967 79.9994C154.612 79.9994 160.091 85.4159 159.095 91.9856C157.94 99.6091 155.686 107.047 152.385 114.061C147.371 124.717 140.066 134.134 130.993 141.64C121.919 149.146 111.3 154.557 99.8943 157.485C88.4883 160.414 76.5764 160.788 65.009 158.582C53.4416 156.375 42.504 151.642 32.977 144.72C23.4501 137.798 15.5687 128.859 9.89558 118.539C4.22246 108.22 0.897505 96.7753 0.158085 85.0226C-0.328706 77.2853 0.313014 69.54 2.04527 62.0266C3.53808 55.5517 10.6264 52.5327 16.8045 54.9788L27.1594 59.0786C33.3375 61.5247 36.182 68.5456 35.4629 75.1513C35.1868 77.6881 35.1271 80.251 35.2882 82.8124C35.7023 89.3939 37.5643 95.8029 40.7412 101.582C43.9182 107.361 48.3318 112.367 53.6669 116.243C59.002 120.119 65.127 122.77 71.6048 124.005C78.0825 125.241 84.7532 125.031 91.1405 123.391C97.5279 121.751 103.474 118.722 108.556 114.518C113.637 110.315 117.727 105.041 120.535 99.0741C121.628 96.7519 122.516 94.347 123.193 91.8867C124.956 85.4802 130.185 79.9994 136.83 79.9994H147.967Z"/>
<path d="M147.967 79.9994C154.612 79.9994 160.091 85.4159 159.095 91.9856C156.68 107.928 149.482 122.872 138.316 134.763C124.387 149.595 105.33 158.563 85.0225 159.841C64.7152 161.118 44.684 154.61 29.006 141.64C16.4377 131.242 7.42412 117.319 3.02907 101.805C1.21794 95.4117 5.97517 89.3508 12.5675 88.518L29.9661 86.3201C36.5584 85.4873 42.4165 90.3056 45.2407 96.3202C47.6274 101.403 51.1208 105.945 55.5225 109.587C63.048 115.812 72.6629 118.936 82.4105 118.323C92.158 117.71 101.306 113.405 107.991 106.286C111.902 102.121 114.799 97.1768 116.529 91.8351C118.578 85.514 123.786 79.9994 130.43 79.9994H147.967Z"/>
<path d="M160 79.9961C160 96.8903 154.652 113.351 144.722 127.018C134.791 140.686 120.789 150.859 104.722 156.08C88.6547 161.3 71.3471 161.3 55.2798 156.08C43.046 152.105 32.0095 145.259 23.0561 136.185C18.3891 131.455 19.6381 123.852 25.0138 119.947L44.3791 105.877C49.7548 101.971 57.2208 103.431 62.8275 106.997C65.0883 108.435 67.5339 109.592 70.1124 110.43C76.5394 112.518 83.4624 112.518 89.8893 110.43C96.3162 108.341 101.917 104.272 105.889 98.805C107.483 96.6116 108.781 94.2383 109.765 91.7461C112.205 85.5656 117.387 79.9961 124.032 79.9961H160Z"/>
</mask>
<path d="M156.172 79.9994C158.286 79.9994 160.008 81.7134 159.907 83.8241C158.994 102.909 151.273 121.088 138.074 135.019C123.996 149.879 104.758 158.777 84.3181 159.882C63.8785 160.987 43.7929 154.215 28.1949 140.96C12.5969 127.704 2.67337 108.974 0.466516 88.6243C-1.74034 68.2741 3.93743 47.8522 16.3313 31.5614C28.7252 15.2706 46.8922 4.35038 67.0935 1.04815C87.2948 -2.25408 107.994 2.31294 124.93 13.8093C140.808 24.5877 152.247 40.6882 157.23 59.1341C157.781 61.174 156.466 63.2174 154.402 63.6704C152.338 64.1234 150.307 62.8137 149.746 60.7765C145.19 44.2429 134.89 29.8191 120.632 20.1405C105.316 9.7438 86.597 5.61363 68.328 8.6C50.0589 11.5864 33.6297 21.462 22.4213 36.1946C11.2129 50.9272 6.07823 69.3957 8.07399 87.7993C10.0697 106.203 19.0441 123.141 33.1501 135.129C47.2561 147.116 65.4205 153.24 83.905 152.241C102.39 151.242 119.788 143.195 132.519 129.757C144.371 117.246 151.339 100.95 152.245 83.824C152.357 81.7139 154.059 79.9994 156.172 79.9994Z" fill="#0088FF"/>
<path d="M155.199 79.9994C157.849 79.9994 160.014 82.1507 159.855 84.7968C158.84 101.696 152.484 117.885 141.64 130.993C129.773 145.337 113.276 155.093 94.9897 158.582C76.7033 162.07 57.7729 159.072 41.4595 150.103C25.1461 141.135 12.4711 126.758 5.61805 109.449C-1.235 92.1402 -1.83703 72.9833 3.91566 55.2783C9.66835 37.5733 21.4156 22.4289 37.1337 12.4539C52.8518 2.4789 71.5566 -1.70212 90.0259 0.631091C106.904 2.76326 122.619 10.2134 134.927 21.8376C136.855 23.6578 136.75 26.7073 134.817 28.522C132.885 30.3367 129.858 30.2276 127.916 28.4233C117.148 18.4195 103.484 12.0074 88.8227 10.1553C72.5697 8.10206 56.1095 11.7814 42.2776 20.5594C28.4456 29.3374 18.1081 42.6645 13.0457 58.2449C7.98333 73.8252 8.51312 90.6833 14.5438 105.915C20.5745 121.147 31.7285 133.799 46.0843 141.691C60.4401 149.583 77.0989 152.221 93.1909 149.152C109.283 146.082 123.801 137.496 134.243 124.874C143.662 113.487 149.234 99.4592 150.235 84.7959C150.416 82.1511 152.548 79.9994 155.199 79.9994Z" fill="#0088FF"/>
<path d="M151.999 79.9994C156.417 79.9994 160.04 83.59 159.599 87.9862C158.189 102.039 153.077 115.519 144.72 127.022C134.79 140.689 120.788 150.863 104.72 156.083C88.6531 161.304 71.3456 161.304 55.2783 156.083C39.211 150.863 25.2088 140.689 15.2787 127.022C5.34856 113.354 0.00022392 96.8936 0.000225397 79.9994C0.000226874 63.1052 5.34857 46.6448 15.2787 32.9771C25.2088 19.3094 39.211 9.13629 55.2783 3.91571C68.8003 -0.47786 83.2008 -1.17386 97.0011 1.82771C101.318 2.76672 103.614 7.3221 102.248 11.5241C100.883 15.7261 96.3725 17.9723 92.0331 17.1416C81.4737 15.12 70.5291 15.7836 60.2225 19.1325C47.3686 23.3089 36.1669 31.4474 28.2228 42.3816C20.2787 53.3157 16.0001 66.4841 16.0001 79.9994C16.0001 93.5147 20.2787 106.683 28.2228 117.617C36.1669 128.551 47.3686 136.69 60.2225 140.866C73.0763 145.043 86.9224 145.043 99.7762 140.866C112.63 136.69 123.832 128.551 131.776 117.617C138.146 108.85 142.159 98.6461 143.499 87.9788C144.05 83.595 147.58 79.9994 151.999 79.9994Z" fill="#0088FF"/>
<path d="M148.799 79.9994C154.984 79.9994 160.079 85.0379 159.216 91.1629C157.632 102.398 153.67 113.213 147.545 122.865C139.411 135.683 127.797 145.921 114.061 152.385C100.325 158.848 85.0339 161.27 69.9728 159.368C54.9118 157.465 40.703 151.316 29.006 141.64C17.309 131.963 8.60677 119.158 3.91566 104.721C-0.775448 90.2828 -1.26175 74.8083 2.51354 60.1044C6.28884 45.4006 14.1699 32.0745 25.2362 21.6826C33.5696 13.857 43.4501 7.93859 54.1899 4.27795C60.0447 2.28235 65.9486 6.34282 67.1077 12.4188C68.2667 18.4947 64.2147 24.2607 58.4773 26.572C51.8801 29.2295 45.8015 33.0984 40.5699 38.0113C32.6021 45.4935 26.9278 55.0883 24.2096 65.675C21.4914 76.2618 21.8415 87.4034 25.2191 97.7986C28.5967 108.194 34.8623 117.413 43.2841 124.381C51.706 131.348 61.9363 135.775 72.7802 137.145C83.6242 138.515 94.6341 136.771 104.524 132.117C114.414 127.463 122.775 120.091 128.632 110.863C132.478 104.803 135.139 98.1072 136.513 91.129C137.708 85.06 142.613 79.9994 148.799 79.9994Z" fill="#0088FF"/>
<path d="M147.967 79.9994C154.612 79.9994 160.091 85.4159 159.095 91.9856C157.626 101.681 154.381 111.059 149.489 119.636C142.602 131.71 132.687 141.782 120.722 148.858C108.757 155.934 95.155 159.77 81.2559 159.989C67.3569 160.207 53.6408 156.8 41.4595 150.103C29.2782 143.406 19.052 133.651 11.7889 121.799C4.52576 109.947 0.476336 96.4062 0.0397005 82.5123C-0.396935 68.6184 2.79429 54.8505 9.29887 42.5654C13.9194 33.8389 20.0984 26.0745 27.4972 19.6389C32.5108 15.2781 40.02 17.002 43.5804 22.6123L45.2613 25.261C48.8217 30.8713 47.0295 38.2271 42.3685 42.9629C38.7907 46.5982 35.7436 50.7478 33.337 55.293C29.044 63.4011 26.9378 72.4879 27.226 81.6579C27.5142 90.8279 30.1868 99.7645 34.9804 107.587C39.7741 115.41 46.5234 121.848 54.563 126.268C62.6027 130.688 71.6553 132.936 80.8287 132.792C90.0021 132.648 98.9796 130.116 106.876 125.446C114.773 120.776 121.317 114.129 125.863 106.159C128.411 101.692 130.282 96.8957 131.434 91.927C132.935 85.4541 138.185 79.9994 144.83 79.9994H147.967Z" fill="#0088FF"/>
<path d="M147.967 79.9994C154.612 79.9994 160.091 85.4159 159.095 91.9856C157.94 99.6091 155.686 107.047 152.385 114.061C147.371 124.717 140.066 134.134 130.993 141.64C121.919 149.146 111.3 154.557 99.8943 157.485C88.4883 160.414 76.5764 160.788 65.009 158.582C53.4416 156.375 42.504 151.642 32.977 144.72C23.4501 137.798 15.5687 128.859 9.89558 118.539C4.22246 108.22 0.897505 96.7753 0.158085 85.0226C-0.328706 77.2853 0.313014 69.54 2.04527 62.0266C3.53808 55.5517 10.6264 52.5327 16.8045 54.9788L27.1594 59.0786C33.3375 61.5247 36.182 68.5456 35.4629 75.1513C35.1868 77.6881 35.1271 80.251 35.2882 82.8124C35.7023 89.3939 37.5643 95.8029 40.7412 101.582C43.9182 107.361 48.3318 112.367 53.6669 116.243C59.002 120.119 65.127 122.77 71.6048 124.005C78.0825 125.241 84.7532 125.031 91.1405 123.391C97.5279 121.751 103.474 118.722 108.556 114.518C113.637 110.315 117.727 105.041 120.535 99.0741C121.628 96.7519 122.516 94.347 123.193 91.8867C124.956 85.4802 130.185 79.9994 136.83 79.9994H147.967Z" fill="#0088FF"/>
<path d="M147.967 79.9994C154.612 79.9994 160.091 85.4159 159.095 91.9856C156.68 107.928 149.482 122.872 138.316 134.763C124.387 149.595 105.33 158.563 85.0225 159.841C64.7152 161.118 44.684 154.61 29.006 141.64C16.4377 131.242 7.42412 117.319 3.02907 101.805C1.21794 95.4117 5.97517 89.3508 12.5675 88.518L29.9661 86.3201C36.5584 85.4873 42.4165 90.3056 45.2407 96.3202C47.6274 101.403 51.1208 105.945 55.5225 109.587C63.048 115.812 72.6629 118.936 82.4105 118.323C92.158 117.71 101.306 113.405 107.991 106.286C111.902 102.121 114.799 97.1768 116.529 91.8351C118.578 85.514 123.786 79.9994 130.43 79.9994H147.967Z" fill="#0088FF"/>
<path d="M160 79.9961C160 96.8903 154.652 113.351 144.722 127.018C134.791 140.686 120.789 150.859 104.722 156.08C88.6547 161.3 71.3471 161.3 55.2798 156.08C43.046 152.105 32.0095 145.259 23.0561 136.185C18.3891 131.455 19.6381 123.852 25.0138 119.947L44.3791 105.877C49.7548 101.971 57.2208 103.431 62.8275 106.997C65.0883 108.435 67.5339 109.592 70.1124 110.43C76.5394 112.518 83.4624 112.518 89.8893 110.43C96.3162 108.341 101.917 104.272 105.889 98.805C107.483 96.6116 108.781 94.2383 109.765 91.7461C112.205 85.5656 117.387 79.9961 124.032 79.9961H160Z" fill="#0088FF"/>
</svg>