<?xml version="1.0" standalone="no"?>
<!DOCTYPE svg PUBLIC "-//W3C//DTD SVG 20010904//EN"
 "http://www.w3.org/TR/2001/REC-SVG-20010904/DTD/svg10.dtd">
<svg version="1.0" xmlns="http://www.w3.org/2000/svg"
 width="160.000000pt" height="212.000000pt" viewBox="0 0 160.000000 212.000000"
 preserveAspectRatio="xMidYMid meet">

<g transform="translate(0.000000,212.000000) scale(0.100000,-0.100000)"
fill="#000000" stroke="none">
<path d="M43 2075 c-22 -16 -34 -43 -13 -30 6 3 10 -1 10 -10 0 -15 1 -15 16
-1 11 11 32 15 72 14 l57 -2 -50 -3 c-50 -4 -75 -16 -75 -36 0 -7 4 -7 12 1
16 16 43 15 60 -1 7 -8 30 -22 51 -32 20 -9 37 -21 37 -26 0 -5 9 -9 20 -9 11
0 29 -9 40 -20 18 -18 31 -20 94 -18 59 2 78 -1 93 -14 12 -11 36 -18 61 -18
26 0 43 -5 44 -12 4 -37 2 -44 -16 -61 -17 -15 -18 -19 -5 -31 21 -20 109 -31
110 -14 1 7 5 -12 9 -43 5 -37 15 -65 29 -80 29 -31 27 -43 -4 -23 -14 9 -25
20 -25 25 0 5 -4 9 -10 9 -18 0 -11 -20 15 -45 22 -19 31 -22 58 -15 18 5 61
7 97 6 36 -2 70 1 77 6 7 6 13 2 18 -11 3 -12 10 -21 15 -21 14 0 20 74 23
287 1 110 5 199 9 196 4 -2 5 3 2 12 -4 9 -16 20 -28 25 -11 4 -214 8 -451 9
-379 2 -433 0 -452 -14z"/>
<path d="M978 2083 c6 -2 18 -2 25 0 6 3 1 5 -13 5 -14 0 -19 -2 -12 -5z"/>
<path d="M1078 2083 c23 -2 61 -2 85 0 23 2 4 4 -43 4 -47 0 -66 -2 -42 -4z"/>
<path d="M1352 2081 c98 -4 151 -10 160 -19 9 -9 11 -96 9 -384 -3 -398 0
-370 -47 -436 -1 -2 -11 2 -22 9 -16 10 -40 10 -115 1 -53 -7 -123 -12 -156
-12 -34 0 -61 -4 -61 -10 0 -5 -18 -10 -40 -10 -35 0 -40 3 -40 23 0 16 -3 18
-9 8 -5 -7 -14 -10 -20 -7 -8 5 -12 -26 -13 -106 -2 -62 -5 36 -8 217 -4 239
-6 115 -8 -446 l-2 -776 -25 -27 -24 -26 -431 0 -430 0 -23 26 -22 26 -5 946
-5 947 0 -977 c0 -969 0 -978 20 -998 20 -20 32 -20 758 -23 l736 -2 28 28 28
27 0 984 c0 954 -1 985 -19 1005 -18 20 -28 21 -190 19 l-171 -2 147 -5z m227
-1016 c0 -727 -3 -955 -12 -972 -9 -17 -12 187 -12 972 0 785 3 989 12 972 9
-17 12 -245 12 -972z m-582 -863 c-1 -59 -3 -10 -3 108 0 118 2 167 3 107 2
-59 2 -155 0 -215z m-957 -122 c0 -13 -1 -13 -10 0 -5 8 -10 22 -10 30 0 13 1
13 10 0 5 -8 10 -22 10 -30z m945 -8 c-3 -3 -5 0 -5 7 0 7 -4 10 -9 7 -5 -4
-7 4 -3 16 l5 22 9 -24 c5 -12 6 -25 3 -28z"/>
<path d="M981 2004 c0 -11 3 -14 6 -6 3 7 2 16 -1 19 -3 4 -6 -2 -5 -13z"/>
<path d="M992 1840 c-4 -3 -7 -38 -8 -77 l0 -73 197 0 c224 0 219 -2 219 82 0
74 4 73 -210 73 -106 0 -195 -2 -198 -5z m366 -72 c-2 -24 -7 -43 -13 -43 -5
0 -11 19 -13 43 -3 33 0 42 13 42 13 0 16 -9 13 -42z m-178 12 c0 -5 -5 -10
-11 -10 -5 0 -7 5 -4 10 3 6 8 10 11 10 2 0 4 -4 4 -10z m128 -11 c4 -19 -19
-31 -38 -19 -18 11 -4 42 17 38 10 -2 19 -10 21 -19z m-268 -14 c-7 -8 -17
-12 -22 -9 -6 4 -5 10 3 15 22 14 33 10 19 -6z m160 5 c0 -5 -5 -10 -11 -10
-5 0 -7 5 -4 10 3 6 8 10 11 10 2 0 4 -4 4 -10z"/>
<path d="M620 1275 c7 -9 15 -13 17 -11 7 7 -7 26 -19 26 -6 0 -6 -6 2 -15z"/>
<path d="M425 1186 c71 -17 85 -19 85 -8 0 4 -10 8 -22 8 -13 1 -45 4 -73 8
-49 6 -49 6 10 -8z"/>
<path d="M310 1139 c0 -5 5 -7 10 -4 6 3 10 8 10 11 0 2 -4 4 -10 4 -5 0 -10
-5 -10 -11z"/>
<path d="M640 1110 l-35 -30 33 16 c17 8 32 19 32 24 0 5 8 11 18 13 13 4 13
5 2 6 -9 0 -31 -12 -50 -29z"/>
<path d="M574 1121 c4 -6 2 -11 -3 -11 -6 0 -11 -7 -11 -15 0 -21 -53 -45
-105 -48 -25 -1 -43 -6 -41 -12 2 -5 24 -9 50 -8 50 3 126 45 126 69 0 8 0 17
1 21 0 4 -5 9 -12 12 -7 2 -9 -1 -5 -8z"/>
<path d="M280 1105 c-7 -8 -8 -15 -2 -15 5 0 15 7 22 15 7 8 8 15 2 15 -5 0
-15 -7 -22 -15z"/>
<path d="M718 1113 c-16 -2 -28 -8 -28 -13 0 -5 14 -5 31 0 30 9 53 22 33 19
-5 -1 -21 -4 -36 -6z"/>
<path d="M560 1040 c-18 -12 -2 -12 25 0 13 6 15 9 5 9 -8 0 -22 -4 -30 -9z"/>
<path d="M330 1021 c0 -5 5 -13 10 -16 6 -3 10 -2 10 4 0 5 -4 13 -10 16 -5 3
-10 2 -10 -4z"/>
</g>
</svg>
