<svg width="1985" height="1498" viewBox="0 0 1985 1498" fill="none" xmlns="http://www.w3.org/2000/svg">
<path d="M1356.75 -799.203L1396.17 -866.511L1356.75 -799.203C1430.19 -756.189 1514.53 -735.401 1599.54 -739.359C1701.69 -744.114 1798.44 -693.337 1852.55 -606.574C1897.58 -534.357 1962.6 -476.755 2039.72 -440.75C2132.37 -397.492 2194.44 -307.57 2202.03 -205.599C2208.35 -120.724 2239.16 -39.5036 2290.71 28.2162C2352.65 109.576 2365.82 218.044 2325.15 311.863C2291.3 389.952 2280.83 476.184 2295.01 560.104C2312.04 660.929 2273.3 763.093 2193.69 827.266C2127.43 880.681 2078.08 952.169 2051.63 1033.07C2019.86 1130.26 1938.07 1202.71 1837.76 1222.54L1853.01 1299.67L1837.76 1222.54C1754.27 1239.04 1677.35 1279.41 1616.34 1338.75C1543.04 1410.04 1436.95 1436.19 1338.91 1407.13C1257.31 1382.94 1170.45 1382.94 1088.85 1407.13C990.812 1436.19 884.723 1410.04 811.422 1338.75C750.409 1279.41 673.494 1239.04 590 1222.54L574.754 1299.67L590 1222.54C489.687 1202.71 407.902 1130.26 376.128 1033.07C349.681 952.169 300.336 880.681 234.075 827.266C154.466 763.093 115.721 660.929 132.754 560.104C146.931 476.184 136.46 389.952 102.612 311.862C61.945 218.044 75.1153 109.577 137.053 28.2162C188.606 -39.5037 219.408 -120.724 225.727 -205.599C233.318 -307.57 295.387 -397.492 388.04 -440.75C465.159 -476.755 530.178 -534.357 575.216 -606.574L508.502 -648.181L575.216 -606.574C629.326 -693.337 726.075 -744.114 828.217 -739.359C913.235 -735.401 997.576 -756.189 1071.02 -799.203C1159.25 -850.882 1268.51 -850.882 1356.75 -799.203Z" fill="#B3DBFF" stroke="#D7ECFF" stroke-width="157.251"/>
</svg>
